# xmcd
#
# Track frame offsets: 
#        150
#        13279
#        28824
#        42480
#        56181
#        65658
#        78170
#        89060
#        114072
#        130014
#        145337
#        162128
#        175365
#        193533
#        208032
#        228637
#        244885
#        261584
#        281978
#        305857
#
# Disc length: 4251 seconds
#
# Revision: 2
# Processed by: cddbd v1.5.2PL0 Copyright (c) Steve Scherf et al.
# Submitted via: ExactAudioCopy v0.95b4
#
DISCID=38109914
DTITLE=Stevie Ray Vaughan and Double Trouble - First Unreleased Album 19
DTITLE=78
DYEAR=1978
DGENRE=Blues
TTITLE0=You Can Have My Husband
TTITLE1=Rude Mood
TTITLE2=Pride And Joy
TTITLE3=Oh, Yeah
TTITLE4=Love Struck Baby
TTITLE5=Ti-Ni-Nee-Ni-Nu
TTITLE6=Gonna Miss Me
TTITLE7=I Wonder Why
TTITLE8=I'm Crying
TTITLE9=Sugar Coated Loving
TTITLE10=Natural Born Lover
TTITLE11=Ti-Ni-Nee-Ni-Nu
TTITLE12=Scratch My Back
TTITLE13=I'll Change
TTITLE14=Shake A Hand, Shake A Hand
TTITLE15=Oh Baby
TTITLE16=Sugar Coated Love
TTITLE17=Love In Vain
TTITLE18=You Can Have My Husband
TTITLE19=My Baby's Gone
EXTD=
EXTT0=Vocals: Lou Ann Barton\n
EXTT1=Instrumental\n
EXTT2=Vocals: Stevie Ray Vaughan\n
EXTT3=Vocals: Lou Ann Barton\n
EXTT4=Vocals: Stevie Ray Vaughan\n
EXTT5=Vocals: Lou Ann Barton\n
EXTT6=Vocals: Stevie Ray Vaughan\n
EXTT7=Vocals: Lou Ann Barton\n
EXTT8=Vocals: Stevie Ray Vaughan\n
EXTT9=Vocals: Lou Ann Barton\n
EXTT10=Vocals: Lou Ann Barton\n
EXTT11=Vocals: Lou Ann Barton\n
EXTT12=Vocals: Lou Ann Barton\n
EXTT13=Vocals: Lou Ann Barton\n
EXTT14=Vocals: Lou Ann Barton\n
EXTT15=Vocals: Lou Ann Barton\n
EXTT16=Vocals: Lou Ann Barton\n
EXTT17=Vocals: Stevie Ray Vaughan\nSaxophone: Johnni Reno\n
EXTT18=Vocals: Lou Ann Barton\nSaxophone: Johnni Reno\n
EXTT19=Vocals: Lou Ann Barton\nSaxophone: Johnni Reno\n
PLAYORDER=
